<?xml version="1.0" standalone="no"?>
<!DOCTYPE svg PUBLIC "-//W3C//DTD SVG 20010904//EN"
 "http://www.w3.org/TR/2001/REC-SVG-20010904/DTD/svg10.dtd">
<svg version="1.0" xmlns="http://www.w3.org/2000/svg"
 width="512.000000pt" height="288.000000pt" viewBox="0 0 512.000000 288.000000"
 preserveAspectRatio="xMidYMid meet">

<g transform="translate(0.000000,288.000000) scale(0.100000,-0.100000)"
fill="#000000" stroke="none">
<path d="M1722 2175 c0 -16 2 -22 5 -12 2 9 2 23 0 30 -3 6 -5 -1 -5 -18z"/>
<path d="M1593 2105 c0 -22 2 -30 4 -17 2 12 2 30 0 40 -3 9 -5 -1 -4 -23z"/>
<path d="M1530 2105 c0 -8 7 -15 15 -15 8 0 15 7 15 15 0 8 -7 15 -15 15 -8 0
-15 -7 -15 -15z"/>
<path d="M1720 2105 c0 -8 7 -15 15 -15 8 0 15 7 15 15 0 8 -7 15 -15 15 -8 0
-15 -7 -15 -15z"/>
<path d="M1670 2025 l0 -45 -52 -2 -53 -2 47 -3 47 -4 4 -47 3 -47 2 53 2 52
45 0 45 0 0 45 0 45 -45 0 -45 0 0 -45z"/>
<path d="M3314 2031 c-48 -17 -194 -98 -194 -107 0 -3 21 6 48 19 63 32 98 40
122 27 56 -30 -14 -187 -172 -387 l-50 -63 -25 31 c-20 24 -32 29 -57 27 -27
-3 -42 -19 -118 -123 -47 -66 -87 -123 -87 -127 -1 -5 19 -8 43 -8 43 0 43 0
102 85 32 46 62 84 65 85 4 0 10 -7 13 -16 8 -22 -29 -67 -175 -210 -207 -201
-387 -341 -522 -405 -117 -55 -166 -30 -133 68 14 42 14 45 0 28 -8 -11 -29
-48 -45 -81 -60 -120 -47 -182 34 -171 94 13 297 142 502 320 130 112 392 377
492 497 208 251 319 462 268 513 -21 22 -47 21 -111 -2z"/>
<path d="M1292 1913 c48 -2 129 -2 180 0 51 1 12 3 -87 3 -99 0 -141 -2 -93
-3z"/>
<path d="M1574 1775 c0 -49 1 -71 3 -48 2 23 2 64 0 90 -2 26 -3 8 -3 -42z"/>
<path d="M1284 1805 c-4 -9 -2 -21 4 -27 15 -15 44 -1 40 19 -4 23 -36 29 -44
8z"/>
<path d="M3195 1749 c-4 -6 -5 -12 -2 -15 2 -3 7 2 10 11 7 17 1 20 -8 4z"/>
<path d="M1714 1573 c-53 -10 -75 -83 -39 -123 16 -17 31 -20 116 -20 106 0
129 -5 129 -26 0 -11 -23 -14 -109 -14 l-109 0 -28 -32 -27 -33 124 -3 c144
-3 180 1 203 27 23 25 23 76 1 101 -16 17 -31 20 -109 20 -104 0 -136 6 -136
26 0 11 22 14 103 14 l102 0 28 35 28 35 -128 -1 c-70 -1 -138 -4 -149 -6z"/>
<path d="M2094 1561 c-47 -21 -53 -29 -64 -78 -18 -76 32 -146 113 -158 23 -3
91 -5 150 -3 l109 3 -66 53 c-59 47 -70 52 -113 52 l-48 -1 24 -19 23 -20 -45
0 c-36 0 -49 5 -61 22 -21 30 -20 51 3 79 17 21 28 24 94 24 91 0 110 -12 105
-67 l-4 -39 41 3 40 3 -1 47 c-1 85 -55 118 -189 118 -47 0 -84 -7 -111 -19z"/>
<path d="M2440 1493 c0 -50 6 -99 13 -113 20 -40 72 -60 155 -60 139 0 172 34
172 175 l0 85 -40 0 -40 0 0 -84 c0 -76 -2 -86 -22 -100 -25 -18 -94 -21 -132
-6 -25 9 -26 12 -26 100 l0 90 -40 0 -40 0 0 -87z"/>
<path d="M3262 1550 c-12 -16 -22 -32 -22 -35 0 -3 56 -5 125 -5 103 0 127 -3
131 -15 14 -36 -13 -45 -142 -45 l-124 0 0 -65 0 -65 40 0 c39 0 40 1 40 35
l0 35 64 0 c61 0 65 -1 90 -35 24 -32 32 -35 77 -35 27 0 49 3 49 7 0 4 -17
24 -37 45 -20 21 -32 38 -25 38 24 0 52 40 52 73 0 74 -48 97 -201 97 -94 0
-96 0 -117 -30z"/>
<path d="M3630 1450 l0 -130 124 0 125 0 20 29 c12 16 21 32 21 35 0 3 -47 6
-105 6 -87 0 -105 3 -105 15 0 12 15 15 78 15 75 0 79 1 100 30 l23 30 -101 0
c-82 0 -100 3 -100 15 0 12 16 15 83 15 81 0 84 1 105 30 12 16 22 32 22 35 0
3 -65 5 -145 5 l-145 0 0 -130z"/>
<path d="M3039 1343 c-13 -16 -12 -17 4 -4 9 7 17 15 17 17 0 8 -8 3 -21 -13z"/>
<path d="M1763 1240 c0 -25 2 -35 4 -22 2 12 2 32 0 45 -2 12 -4 2 -4 -23z"/>
<path d="M2123 1220 c0 -36 2 -50 4 -32 2 17 2 47 0 65 -2 17 -4 3 -4 -33z"/>
<path d="M2382 1195 c0 -16 2 -22 5 -12 2 9 2 23 0 30 -3 6 -5 -1 -5 -18z"/>
</g>
</svg>
